HIERARCHY
ROOT Hips
{
	OFFSET 0.000000 0.000000 0.000000 
	CHANNELS 6 Xposition Yposition Zposition Zrotation Yrotation Xrotation
	JOINT LeftUpLeg
	{
		OFFSET 1.363060 -1.794630 0.839290 
		CHANNELS 3 Zrotation Yrotation Xrotation
		JOINT LeftLeg
		{
			OFFSET 2.448110 -6.726130 0.000000 
			CHANNELS 3 Zrotation Yrotation Xrotation
			JOINT LeftFoot
			{
				OFFSET 2.562200 -7.039590 0.000000 
				CHANNELS 3 Zrotation Yrotation Xrotation
				JOINT LeftToeBase
				{
					OFFSET 0.157640 -0.433110 2.322550 
					CHANNELS 3 Zrotation Yrotation Xrotation
					End Site
					{
						OFFSET 0.000000 0.000000 0.000000 
					}
				}
			}
		}
	}
	JOINT RightUpLeg
	{
		OFFSET -1.305520 -1.794630 0.839290 
		CHANNELS 3 Zrotation Yrotation Xrotation
		JOINT RightLeg
		{
			OFFSET -2.542530 -6.985550 0.000000 
			CHANNELS 3 Zrotation Yrotation Xrotation
			JOINT RightFoot
			{
				OFFSET -2.568260 -7.056230 0.000000 
				CHANNELS 3 Zrotation Yrotation Xrotation
				JOINT RightToeBase
				{
					OFFSET -0.164730 -0.452590 2.363150 
					CHANNELS 3 Zrotation Yrotation Xrotation
					End Site
					{
						OFFSET 0.000000 0.000000 0.000000 
					}
				}
			}
		}
	}
	JOINT Spine
	{
		OFFSET 0.028270 2.035590 -0.193380 
		CHANNELS 3 Zrotation Yrotation Xrotation
		JOINT Spine1
		{
			OFFSET 0.056720 2.048850 -0.042750 
			CHANNELS 3 Zrotation Yrotation Xrotation
			JOINT Neck1
			{
				OFFSET -0.054170 1.746240 0.172020 
				CHANNELS 3 Zrotation Yrotation Xrotation
				JOINT Head
				{
					OFFSET 0.104070 1.761360 -0.123970 
					CHANNELS 3 Zrotation Yrotation Xrotation
					End Site
					{
						OFFSET 0.000000 0.000000 0.000000 
					}
				}
			}
			JOINT LeftArm
			{
				OFFSET 3.362410 1.200890 -0.311210 
				CHANNELS 3 Zrotation Yrotation Xrotation
				JOINT LeftForeArm
				{
					OFFSET 4.983000 -0.000000 -0.000000 
					CHANNELS 3 Zrotation Yrotation Xrotation
					JOINT LeftHand
					{
						OFFSET 3.483560 -0.000000 -0.000000 
						CHANNELS 3 Zrotation Yrotation Xrotation
						JOINT LeftHandIndex1
						{
							OFFSET 0.715260 -0.000000 -0.000000 
							CHANNELS 3 Zrotation Yrotation Xrotation
							End Site
							{
								OFFSET 0.000000 0.000000 0.000000 
							}
						}
					}
				}
			}
			JOINT RightArm
			{
				OFFSET -3.136600 1.374050 -0.404650 
				CHANNELS 3 Zrotation Yrotation Xrotation
				JOINT RightForeArm
				{
					OFFSET -5.241900 -0.000000 -0.000000 
					CHANNELS 3 Zrotation Yrotation Xrotation
					JOINT RightHand
					{
						OFFSET -3.444170 -0.000000 -0.000000 
						CHANNELS 3 Zrotation Yrotation Xrotation
						JOINT RightHandIndex1
						{
							OFFSET -0.622530 -0.000000 -0.000000 
							CHANNELS 3 Zrotation Yrotation Xrotation
							End Site
							{
								OFFSET 0.000000 0.000000 0.000000 
							}
						}
					}
				}
			}
		}
	}
}
MOTION
Frames: 13
Frame Time: 0.041667
8.399354 17.416044 45.626422 -173.688240 22.548246 -153.918836 -5.651600 13.897811 -54.181654 0.944251 8.838927 23.662492 1.095128 9.988211 35.588076 8.058600 16.162200 52.773400 15.176206 1.631518 -22.923988 -4.833482 -14.267906 35.293914 21.298169 -59.665757 9.231146 -12.553900 18.615100 -67.734200 -0.487512 6.546977 -1.542903 1.262836 4.148413 3.783349 -2.387245 -12.545131 6.697485 1.216100 -5.319100 -2.807000 32.972505 -15.915342 -53.136702 10.041566 -19.532891 -4.000397 -1.472717 -6.913730 -60.090699 -7.125000 0.000000 0.000000 -59.193563 24.287652 -139.350035 4.162165 10.134284 0.494163 3.929327 9.071299 17.756193 7.125000 0.000000 0.000000 
8.497321 17.257506 44.582295 -172.452182 19.660205 -149.627592 -6.293010 11.789802 -59.792594 3.611149 11.758268 31.402145 -1.379736 15.420307 33.848977 4.939600 13.315400 40.561000 16.139613 2.554298 -21.984966 -2.946188 -13.361921 33.497338 21.569922 -52.576756 -5.146845 -9.726400 17.253100 -58.569800 -0.439216 3.293937 -1.593646 -0.469284 2.819188 2.924417 -2.597287 -13.669860 5.872349 1.454400 -5.790100 -3.107700 31.746782 -13.157555 -42.836799 13.966841 -22.111546 -5.945523 -1.754040 -8.699991 -77.791940 -7.125000 0.000000 0.000000 -60.994237 24.176108 -148.915191 4.749985 8.613021 0.626770 4.207369 8.381772 22.866116 7.125000 0.000000 0.000000 
8.577722 17.170855 43.481695 -171.473555 18.648211 -145.855720 -4.050905 9.366609 -63.652897 4.483521 13.298561 38.724320 1.502509 4.104462 29.937287 4.535100 12.840300 38.773400 15.429378 0.159984 -19.789534 -1.902322 -11.649168 26.876532 24.635700 -59.878685 1.319025 -12.967100 18.770300 -69.023400 -0.218461 3.284742 -1.795645 0.314059 2.616387 1.364586 -1.713632 -14.445700 5.324355 1.693700 -6.151600 -3.263000 33.560863 -15.141741 -51.147777 12.693338 -21.719792 -5.229693 -2.154094 -7.684101 -69.013680 -7.125000 0.000000 0.000000 -59.227250 23.832385 -148.873287 4.539495 8.644046 0.565759 4.229066 8.528803 24.046291 7.125000 0.000000 0.000000 
8.635597 17.096921 42.312765 -169.472624 18.164238 -143.278598 -1.824592 8.691670 -64.242573 5.133154 13.960248 41.983419 2.886646 -0.989909 29.543267 8.396900 16.403600 53.980100 15.226336 -5.184640 -17.606724 0.049223 -9.424645 20.958150 17.669535 -45.230360 1.694467 -0.061300 -1.597800 4.395500 -0.160994 3.885900 -1.872026 0.740089 2.957898 0.604646 -0.902865 -14.503643 5.411912 1.973800 -6.276000 -1.857600 35.702869 -15.365007 -53.432060 12.019802 -21.342730 -4.570861 -2.451468 -7.396122 -67.171381 -7.125000 0.000000 0.000000 -57.641938 22.909496 -151.089781 4.515297 8.021955 0.518690 4.595490 8.275100 25.587938 7.125000 0.000000 0.000000 
8.663618 17.208145 41.052441 -166.439364 18.229954 -137.514905 0.936061 8.482136 -65.056517 5.612707 14.116493 43.101454 2.836254 -1.647027 25.962812 7.898200 16.043900 52.195300 13.462899 -8.443197 -17.237151 0.315403 -8.159246 15.645665 8.376933 -37.074108 27.919782 -6.979700 -15.314800 48.797400 -0.171715 4.497116 -2.072995 0.521634 3.231490 -0.602340 0.007972 -14.564248 5.043869 2.208200 -6.359500 -1.533900 36.630871 -14.826551 -53.522132 12.420217 -21.674280 -4.604412 -2.768089 -7.327678 -66.333404 -7.125000 0.000000 0.000000 -56.224385 21.720546 -154.482708 4.452256 7.350127 0.480755 5.240414 7.882692 27.846794 7.125000 0.000000 0.000000 
8.698969 17.241232 39.736722 -161.071815 14.019191 -128.058608 7.492915 7.619293 -68.369766 6.585844 13.879388 44.611540 2.560420 -1.845976 22.004349 7.864700 16.018800 52.073800 17.368326 -14.107568 -21.180190 2.461193 -4.681266 11.085100 -3.872067 -7.812032 41.358969 -7.090800 -15.407800 49.216700 -0.065481 5.031086 -2.186971 -0.640306 3.303745 0.154400 0.817163 -14.058164 5.106102 2.503100 -6.178900 -1.287600 36.790521 -14.001086 -52.248993 13.915259 -22.743199 -5.332085 -2.964385 -7.419108 -67.060884 -7.125000 0.000000 0.000000 -54.752498 20.541502 -149.020737 4.037721 8.294691 0.901980 4.874638 11.141726 22.759742 7.125000 0.000000 0.000000 
8.703711 17.290809 38.409793 -157.001385 10.801059 -118.521444 12.970000 7.861411 -72.282649 8.089872 13.927082 45.997734 -2.376542 9.915196 13.865584 3.464800 11.411900 33.682100 21.746151 -21.563073 -28.860190 2.922803 -3.741903 10.538675 -12.039408 7.363776 69.817301 -0.802800 -5.718600 15.970200 -0.039300 5.964897 -2.322980 -1.907876 3.632926 0.831543 1.868429 -13.184546 5.308778 2.984400 -5.806700 -0.967600 37.765618 -14.407998 -53.903621 14.456748 -23.438927 -5.563454 -3.186351 -7.166959 -67.066897 -7.125000 0.000000 0.000000 -53.397992 19.332465 -155.602561 4.306259 6.405735 0.527934 6.452839 7.945633 27.662545 7.125000 0.000000 0.000000 
8.671270 17.346960 37.091702 -150.870418 8.570931 -109.605523 17.255089 9.617260 -75.271211 9.778316 14.221323 46.723626 -9.168388 27.271581 10.544514 3.094600 10.846700 31.764500 141.710935 65.147804 164.975559 0.037565 4.637402 -15.531306 -9.502484 4.636447 -65.030119 -8.665200 -16.587400 54.924900 -0.209949 7.659414 -2.492163 -2.602382 4.657653 1.444291 2.806321 -12.014214 5.306190 3.451200 -5.264900 -0.686800 37.875276 -14.762726 -54.624883 14.482686 -23.507331 -5.554061 -3.281916 -6.894198 -66.244400 -7.125000 0.000000 0.000000 -53.152486 19.254524 -156.402692 4.347576 5.847236 0.723066 5.808085 9.141046 29.821994 7.125000 0.000000 0.000000 
8.631717 17.407745 35.793981 -147.454140 4.982867 -103.221938 21.910605 10.911709 -75.506668 11.384678 14.127801 45.257823 -12.624620 44.062969 17.102641 5.949200 14.378900 44.777400 23.309186 -27.597242 -30.046450 -2.794598 -10.007816 15.497754 167.816335 -37.257357 31.286759 -0.617100 5.027400 -13.986800 -0.332663 8.635486 -2.699267 -2.997790 5.028405 2.022607 3.423353 -10.911529 5.080708 3.671400 -4.721100 -0.423000 37.251390 -15.120133 -51.844325 14.539357 -23.231291 -5.419345 -3.425013 -6.601202 -63.640392 -7.125000 0.000000 0.000000 -54.164108 20.744607 -154.206524 4.245740 7.136918 0.624689 5.922230 9.050334 27.079159 7.125000 0.000000 0.000000 
8.611886 17.506790 34.507791 -144.490763 1.356859 -97.286342 25.765102 11.841940 -73.686872 10.950075 13.384038 42.225007 -14.036175 48.465183 16.978167 4.499100 12.796500 38.611200 19.854329 -23.559610 -25.427626 -2.074921 -9.720354 16.048137 168.024105 -29.313467 27.585531 -0.609000 4.995000 -13.894400 -0.547924 9.152204 -2.835466 -4.140348 5.350193 2.632151 4.396237 -8.540965 5.110141 3.716400 -3.584600 -0.053800 37.057597 -15.480838 -51.552229 14.490908 -23.074461 -5.267108 -3.696399 -5.963540 -59.190784 -7.125000 0.000000 0.000000 -54.392075 21.405331 -149.897445 3.833949 9.173891 0.294051 5.725133 9.568649 20.330957 7.125000 0.000000 0.000000 
8.613072 17.635151 33.241109 -142.845944 -4.530548 -92.147866 31.006468 11.968560 -70.601941 10.129663 12.184271 36.571183 -13.152998 52.407426 22.941771 3.011900 10.714300 31.322200 19.760022 -17.803668 -20.647251 -1.149459 -9.131051 18.297741 170.626638 -27.235649 8.719839 -2.601600 10.020300 -29.042600 -0.623435 9.990755 -3.130743 -4.382764 5.685081 2.513374 4.991155 -7.367358 4.757614 3.989500 -2.934800 0.253400 36.662491 -16.677696 -59.082065 10.799944 -20.013601 -3.484182 -3.623444 -3.367142 -39.358981 -7.125000 0.000000 0.000000 -54.890256 22.715145 -148.685822 3.706809 9.976226 0.214965 5.505879 9.892470 18.646388 7.125000 0.000000 0.000000 
8.637213 17.797568 31.997707 -142.271298 -11.975110 -87.311250 37.951364 11.465567 -66.403442 8.861976 10.680874 29.377464 -9.704716 55.163406 32.369794 1.714600 8.244400 23.458900 21.043703 -11.412269 -15.501694 -1.374853 -10.327466 22.487832 172.370491 -28.701805 5.392624 -1.864500 8.577900 -24.483500 -0.562620 10.786848 -3.375804 -3.993366 5.963263 2.604001 5.334827 -6.012942 4.321375 4.063500 -2.180400 0.223400 36.223999 -16.906367 -78.891635 4.830988 -15.167998 -1.903220 -2.336944 0.744985 -9.071500 -7.125000 0.000000 0.000000 -55.666791 24.286709 -148.003893 3.426794 11.080967 0.085517 5.554008 9.969029 20.724547 7.125000 0.000000 0.000000 
8.678276 18.045235 30.733072 -143.554446 -18.906656 -82.257272 45.914328 8.416483 -60.070126 6.889581 8.360832 19.968333 -5.135869 57.601592 42.016970 2.635200 10.079700 29.235300 23.746983 -5.990725 -10.905034 -1.567153 -11.437476 27.516237 174.629147 -29.291502 -4.402371 -5.026800 13.413900 -40.938500 -0.283598 11.770503 -3.614640 -4.386333 6.422766 2.437246 6.121210 -4.474727 3.527640 4.230900 -1.327200 0.046000 37.295399 -19.131602 -79.351924 5.923776 -16.450836 -2.191052 -3.112731 -0.017835 -12.973373 -7.125000 0.000000 0.000000 -54.569300 24.325612 -139.912843 3.012709 12.242239 -0.309612 6.082397 8.841695 13.574600 7.125000 0.000000 0.000000 
